<?xml version="1.0" encoding="UTF-8"?>
<svg width="150px" height="36px" viewBox="0 0 150 36" version="1.1" xmlns="http://www.w3.org/2000/svg" xmlns:xlink="http://www.w3.org/1999/xlink">
    <!-- Generator: Sketch 49.1 (51147) - http://www.bohemiancoding.com/sketch -->
    <title>Group</title>
    <desc>Created with Sketch.</desc>
    <defs></defs>
    <g id="Page-1" stroke="none" stroke-width="1" fill="none" fill-rule="evenodd">
        <g id="01_startseite" transform="translate(-70.000000, -60.000000)" fill="#FAEB00">
            <g id="header" transform="translate(70.000000, 60.000000)">
                <g id="logo">
                    <g id="Group">
                        <path d="M119.60503,35.60193 C115.134849,35.59878 112.202169,34.55163 110.639367,32.39973 C109.159699,30.36213 109.05488,27.50778 110.320392,23.67198 L118.132139,0.00018 L129.07491,0.00603 L121.351717,23.45013 C121.009247,24.48648 120.90759,24.99723 121.160151,25.47288 L121.192681,25.53273 L121.236054,25.58448 C121.546446,25.95303 122.090873,26.19423 126.645994,26.19423 C127.135753,26.19423 145.681536,26.20278 149.982741,26.20458 L146.879277,35.60733 L119.60503,35.60193 Z" id="L"></path>
                        <path d="M73.7959789,35.58132 C68.8518524,35.57772 64.4774548,33.57162 61.7950753,30.07782 C59.1569729,26.64027 58.4060693,22.16592 59.6806175,17.47962 C62.8283584,5.91102 70.2632982,0.04527 81.7789608,0.04527 C81.912244,0.04527 108.476702,0.07002 113.696431,0.07497 L110.613298,9.41697 C106.910286,9.41517 82.2818223,9.40122 82.1236898,9.40122 C76.2271536,9.40122 72.4143524,12.26997 70.4675151,18.17172 C69.6429669,20.66922 69.7654066,22.84497 70.8126958,24.29802 C71.8929669,25.79517 73.7119428,26.12097 75.0479367,26.12997 C75.1979367,26.13132 78.9050151,26.14077 102.043419,26.19162 L105.075045,26.19837 L101.972937,35.59887 L73.7959789,35.58132 Z" id="C"></path>
                        <path d="M9.03614458e-05,35.55405 L3.08322289,26.2125 C6.94798193,26.2143 33.6728313,26.2278 33.8318675,26.2278 C39.7279518,26.2278 43.5403012,23.3595 45.4880422,17.4582 C46.2823193,15.0507 46.1291566,12.83085 45.066506,11.3679 C43.9229819,9.79425 42.054759,9.46305 40.6893976,9.46215 C40.5190663,9.46215 28.1603313,9.4437 28.1603313,9.4437 L8.58262048,9.46395 L11.7253916,0.03105 L42.1595783,0.04815 C47.1046084,0.05175 51.4781024,2.05785 54.1600301,5.55165 C56.7985843,8.98875 57.549488,13.46265 56.2749398,18.14985 C53.1271988,29.718 45.692259,35.58375 34.1765964,35.58375 C34.0428614,35.58375 5.43036145,35.559 9.03614458e-05,35.55405" id="D"></path>
                    </g>
                </g>
            </g>
        </g>
    </g>
</svg>