<svg width="1691px" height="170px" viewBox="0 0 1691 610" version="1.1" xmlns="http://www.w3.org/2000/svg" xmlns:xlink="http://www.w3.org/1999/xlink">
    <!-- Generator: Sketch 52.4 (67378) - http://www.bohemiancoding.com/sketch -->
    
    <desc>Created with Sketch.</desc>
    <g id="Page-1" stroke="none" stroke-width="1" fill="none" fill-rule="evenodd">
        <g id="Vector_Version_01">
            <g id="Group">
                <g id="Group-4">
                    <path d="M1547.17,566.013 L1646.14,261.958 L930.678,261.953 L930.763,261.702 L959.368,177.435 L795.263,176.856 L844.424,21.848 L506.848,31.536 C506.126,30.743 505.604,30.188 505.538,30.166 C505.288,30.083 501.389,27.603 501.389,27.603 L457.038,57.833 L457.525,58.402 L450.843,62.189 L422.958,91.727 C422.958,91.727 415.992,78.451 411.305,72.415 C391.69,47.154 360.217,31.588 324.958,31.453 L182.23,31.108 C187.164,21.666 192.705,11 192.705,11 C192.705,11 186.038,3.416 185.788,3.333 C185.538,3.25 181.639,0.769 181.639,0.769 L137.288,31 L6.191,426.101 C-0.248,449.078 -1.672,471.699 1.956,493.338 C5.663,515.449 14.465,535.577 28.118,553.165 C41.743,570.709 59.973,585.149 80.839,594.928 C101.828,604.765 124.729,609.824 148.911,609.98 L148.955,610 L1532.86,609.958 L1576.86,579.958 L1563.08,566.75 L1547.17,566.013" id="Fill-1" fill="#FFFFFE"></path>
                    <path d="M181.288,1 L50.19,396.101 C43.752,419.078 42.328,441.699 45.956,463.338 C49.663,485.449 58.465,505.577 72.118,523.165 C85.743,540.709 103.973,555.149 124.839,564.928 C145.828,574.765 168.729,579.824 192.911,579.98 L192.955,580 L1576.86,579.958 L1690.14,231.958 L974.678,231.953 L974.763,231.702 L1003.37,147.435 L839.263,146.856 L888.424,1.848 L588.83,1.594 C551.432,1.592 519.774,12.898 494.843,32.189 C484.251,40.385 474.951,50.261 466.958,61.727 C463.876,54.906 459.992,48.451 455.305,42.415 C435.69,17.154 404.217,1.588 368.958,1.453 L181.639,0.769 L181.288,1" id="Fill-3" fill="#000105"></path>
                </g>
                <path d="M368.84,27.462 L199.456,26.844 L181.804,78.361 L290.767,78.587 C290.767,78.587 359.55,78.901 360.499,78.904 C368.098,78.933 378.49,80.776 384.828,89.399 C390.717,97.416 391.532,109.554 387.07,122.703 C376.13,154.933 354.863,170.548 322.048,170.446 C321.163,170.444 172.423,169.909 150.913,169.832 L133.595,220.851 C163.818,220.972 323.064,221.6 323.808,221.602 C387.9,221.801 429.379,189.861 447.094,126.67 C454.268,101.066 450.164,76.594 435.537,57.758 C420.67,38.61 396.362,27.567 368.84,27.462" id="Fill-5" fill="#F3EA45"></path>
                <path d="M551.443,170.622 C544.007,170.55 533.889,168.737 527.902,160.534 C522.098,152.571 521.454,140.674 526.085,127.034 C537.02,94.802 558.29,79.184 591.108,79.286 C591.987,79.289 729.06,79.789 749.67,79.863 L766.987,28.842 C737.936,28.725 590.089,28.132 589.347,28.129 C525.255,27.931 483.776,59.871 466.061,123.064 C458.888,148.663 462.991,173.138 477.616,191.977 C492.485,211.124 516.798,222.167 544.315,222.272 L701.137,222.854 L718.561,171.514 L701.689,171.425 C572.91,170.748 552.278,170.632 551.443,170.622" id="Fill-6" fill="#F3EA45"></path>
                <path d="M838.617,171.864 C813.265,171.785 810.239,170.457 808.517,168.437 L808.277,168.153 L808.097,167.825 C806.7,165.221 807.274,162.43 809.198,156.77 L852.579,28.731 L791.675,28.51 L747.797,157.792 C740.689,178.742 741.224,194.349 749.425,205.514 C758.087,217.306 774.391,223.081 799.27,223.175 L951.068,223.675 L968.501,172.323 C944.561,172.239 841.342,171.872 838.617,171.864" id="Fill-7" fill="#F3EA45"></path>
                <path d="M1358.46,344.292 C1360.07,339.348 1364.67,336 1369.87,336 L1629.02,336 L1655.37,257 L1372.02,257 C1328.7,257 1290.3,284.896 1276.92,326.098 L1230.19,469.914 C1216.54,511.911 1247.85,555 1292.01,555 L1558.54,555 L1583.56,477 L1326.77,477 C1321.33,477 1317.48,471.696 1319.16,466.527 L1323.46,453.292 C1325.07,448.348 1329.67,445 1334.87,445 L1593.96,445 L1618.63,368 L1361.77,368 C1356.33,368 1352.48,362.696 1354.16,357.527 L1358.46,344.292" id="Fill-8" fill="#FFFFFE"></path>
                <path d="M1181.9,257 L981.022,257 C937.7,257 900.304,284.896 886.917,326.098 L811.542,555 L900.687,555 L969.15,344.292 C970.756,339.348 975.364,336 980.563,336 L1005.83,336 C1011.27,336 1015.12,341.303 1013.44,346.472 L945.687,555 L1034.69,555 L1103.15,344.292 C1104.76,339.348 1109.36,336 1114.56,336 L1139.83,336 C1145.27,336 1149.12,341.303 1147.44,346.472 L1079.69,555 L1174.54,555 L1243.72,342.086 C1257.37,300.088 1226.06,257 1181.9,257" id="Fill-9" fill="#FFFFFE"></path>
                <path d="M762.337,342.218 L741.628,405.954 C740.456,409.559 737.096,412 733.306,412 L584.201,412 C580.974,412 578.686,408.851 579.683,405.782 L600.392,342.046 C601.564,338.44 604.923,336 608.714,336 L757.819,336 C761.046,336 763.334,339.148 762.337,342.218 Z M796.377,257 L617.288,257 C569.632,257 528.398,287.685 513.672,333.008 L440.542,555 L531.199,555 L553.849,485.292 C555.456,480.348 560.063,477 565.262,477 L707.532,477 C712.967,477 716.82,482.303 715.141,487.472 L693.199,555 L784.542,555 L855.104,337.832 C868.068,297.934 838.327,257 796.377,257 Z" id="Fill-10" fill="#FFFFFE"></path>
                <path d="M364.458,412.094 L342.959,468.407 C341.148,473.027 336.689,477.058 331.726,477.031 C302.465,476.874 205.136,477.353 204.256,477.343 C192.928,477.233 177.514,472.472 168.393,459.974 C159.55,447.844 158.568,429.719 165.624,408.938 C182.284,359.834 214.687,336.04 264.684,336.195 C266.025,336.199 485.248,336.075 485.248,336.075 L511.017,257 C511.017,257 439.252,257.037 372.766,257.071 L372.789,257 L121.289,257 L79.026,387.262 C77.301,392.33 75.681,397.534 74.179,402.891 C63.252,441.889 69.503,479.176 91.783,507.876 C114.437,537.047 151.476,554.87 193.397,555.03 L413.31,554.917 L460.267,412.062 L364.458,412.094" id="Fill-11" fill="#FFFFFE"></path>
                <polyline id="Fill-12" fill="#000105" points="158.858 274.229 161.36 266.669 130.301 266.669 127.738 274.229 138.418 274.229 127.617 307.111 137.257 307.111 148.058 274.229 158.858 274.229"></polyline>
                <polyline id="Fill-13" fill="#000105" points="197.2 266.669 188.559 266.669 183.342 282.45 169.642 282.45 174.86 266.669 165.22 266.669 151.857 307.111 161.496 307.111 167.123 290.13 180.763 290.13 175.195 307.111 184.836 307.111 198.2 266.669 197.2 266.669"></polyline>
                <polyline id="Fill-14" fill="#000105" points="229.12 266.669 205.18 266.669 191.816 307.111 217.596 307.111 220.013 299.73 203.874 299.73 207.108 289.95 221.507 289.95 223.908 282.69 209.508 282.69 212.402 274.049 227.642 274.049 230.12 266.669 229.12 266.669"></polyline>
            </g>
        </g>
    </g>
</svg>