<?xml version="1.0" encoding="UTF-8" standalone="no"?>
<!-- Created with Inkscape (http://www.inkscape.org/) -->

<svg
   xmlns:dc="http://purl.org/dc/elements/1.1/"
   xmlns:cc="http://creativecommons.org/ns#"
   xmlns:rdf="http://www.w3.org/1999/02/22-rdf-syntax-ns#"
   xmlns:svg="http://www.w3.org/2000/svg"
   xmlns="http://www.w3.org/2000/svg"
   xmlns:sodipodi="http://sodipodi.sourceforge.net/DTD/sodipodi-0.dtd"
   xmlns:inkscape="http://www.inkscape.org/namespaces/inkscape"
   width="94.12854mm"
   height="93.937584mm"
   viewBox="0 0 333.52634 332.84971"
   id="svg9536"
   version="1.1"
   inkscape:version="0.91 r13725"
   sodipodi:docname="logo-square.svg"
   inkscape:export-filename="/Users/scottaikin/Sites/rotorbuilds/images/logo-square.png"
   inkscape:export-xdpi="90"
   inkscape:export-ydpi="90">
  <defs
     id="defs9538">
    <mask
       id="mask4654"
       maskUnits="objectBoundingBox">
      <rect
         id="rect4656"
         transform="matrix(0.70710678,0.70710678,-0.70710678,0.70710678,0,0)"
         rx="26.424999"
         ry="25.955"
         height="332.75"
         width="332.75"
         y="-1248.2"
         x="1665.8"
         style="fill:#ffffff" />
    </mask>
    <mask
       id="mask4658"
       maskUnits="objectBoundingBox">
      <rect
         id="rect4660"
         transform="matrix(0.58778525,0.80901699,-0.80901699,0.58778525,0,0)"
         rx="26.424999"
         ry="25.955"
         height="332.75"
         width="332.75"
         y="-1248.2"
         x="1665.8"
         style="fill:#ffffff" />
    </mask>
    <mask
       id="mask4670"
       maskUnits="objectBoundingBox">
      <rect
         id="rect4672"
         rx="26.424999"
         ry="25.955"
         height="332"
         width="332"
         y="-1247.9"
         x="1666.3"
         style="fill:#ffffff" />
    </mask>
  </defs>
  <sodipodi:namedview
     id="base"
     pagecolor="#646464"
     bordercolor="#666666"
     borderopacity="1.0"
     inkscape:pageopacity="0.39215686"
     inkscape:pageshadow="2"
     inkscape:zoom="1.4905955"
     inkscape:cx="165.64858"
     inkscape:cy="160.24061"
     inkscape:document-units="px"
     inkscape:current-layer="layer1"
     showgrid="false"
     inkscape:window-width="1440"
     inkscape:window-height="800"
     inkscape:window-x="0"
     inkscape:window-y="1"
     inkscape:window-maximized="1"
     inkscape:object-nodes="false"
     inkscape:snap-nodes="true"
     fit-margin-top="0"
     fit-margin-left="0"
     fit-margin-right="0"
     fit-margin-bottom="0" />
  <metadata
     id="metadata9541">
    <rdf:RDF>
      <cc:Work
         rdf:about="">
        <dc:format>image/svg+xml</dc:format>
        <dc:type
           rdf:resource="http://purl.org/dc/dcmitype/StillImage" />
        <dc:title></dc:title>
      </cc:Work>
    </rdf:RDF>
  </metadata>
  <g
     inkscape:label="Layer 1"
     inkscape:groupmode="layer"
     id="layer1"
     transform="translate(-1665.2919,1248.3736)">
    <rect
       style="fill:#4b7fb1;fill-opacity:1;fill-rule:evenodd;stroke:none;stroke-width:1px;stroke-linecap:butt;stroke-linejoin:miter;stroke-opacity:1"
       id="rect10689"
       width="333.86176"
       height="332.68201"
       x="1664.9564"
       y="-1248.2059"
       ry="26.694096"
       inkscape:export-xdpi="539.16351"
       inkscape:export-ydpi="539.16351"
       mask="url(#mask4674)"
       transform="matrix(0.99899533,0,0,1.0005041,2.0082455,0.46155195)" />
    <path
       inkscape:connector-curvature="0"
       d="m 1665.1142,-1249.1444 0,337.22112 m 66.9,-337.22112 0,337.22112 m 66.9,-337.22112 0,337.22112 m 66.9,-337.22112 0,337.22112 m 66.9,-337.22112 0,337.22112 m 66.9001,-337.22112 0,337.22112 m -334.5001,-337.22112 337.2213,0 m -337.2213,66.9 337.2213,0 m -337.2213,66.9 337.2213,0 m -337.2213,66.9 337.2213,0 m -337.2213,66.89998 337.2213,0 m -337.2213,66.90004 337.2213,0"
       style="fill:none;fill-opacity:0.75;fill-rule:evenodd;stroke:#ffffff;stroke-width:1.625;stroke-linecap:butt;stroke-linejoin:miter;stroke-miterlimit:4;stroke-dasharray:none;stroke-opacity:1"
       id="path10691"
       mask="url(#mask4670)" />
    <rect
       transform="matrix(0.58778525,-0.80901699,0.80901699,0.58778525,0,0)"
       y="814.10028"
       x="1669.479"
       height="525.05042"
       width="525.05042"
       id="rect10699"
       style="fill:none;fill-rule:evenodd;stroke:#ffffff;stroke-width:2;stroke-linecap:butt;stroke-linejoin:miter;stroke-miterlimit:4;stroke-dasharray:none;stroke-opacity:1"
       mask="url(#mask4658)" />
    <rect
       transform="matrix(0.70710678,-0.70710678,0.70710678,0.70710678,0,0)"
       y="533.47821"
       x="1761.6191"
       height="536.75146"
       width="536.75146"
       id="rect10701"
       style="fill:none;fill-rule:evenodd;stroke:#ffffff;stroke-width:2;stroke-linecap:butt;stroke-linejoin:miter;stroke-miterlimit:4;stroke-dasharray:none;stroke-opacity:1"
       mask="url(#mask4654)" />
    <ellipse
       style="fill:none;fill-opacity:1;stroke:none;stroke-width:10.6239996;stroke-linecap:square;stroke-linejoin:miter;stroke-miterlimit:4;stroke-dasharray:none;stroke-opacity:1"
       id="path4682"
       cx="1830.464"
       cy="-1076.1556"
       rx="11.488785"
       ry="11.587033" />
    <path
       inkscape:connector-curvature="0"
       id="path10695"
       d="m 1703.6483,-1219.4531 c -1.364,1.2529 -2.6767,2.5408 -3.9662,3.7341 -4.3231,4.1834 -9.766,9.4796 -9.4055,15.8185 0.052,0.9056 0.2228,1.8339 0.5307,2.7818 2.1653,5.3441 6.2992,9.4924 9.7595,13.9979 35.1974,42.9311 57.6255,62.5194 101.3384,96.4474 a 30.803518,30.803518 0 0 0 7.8692,25.5795 30.803518,30.803518 0 0 0 28.1299,9.31 c 1.5882,1.6132 3.0052,3.3925 4.1562,5.3579 11.8586,20.8588 25.3207,40.9158 41.1015,59.06264 18.5916,21.27512 21.5288,21.15526 44.1251,38.09435 5.814,3.90825 11.0318,9.21704 18.0727,10.84843 5.8266,0.43663 10.3859,-3.00059 14.4779,-6.75962 1.364,-1.25299 2.6782,-2.54219 3.9677,-3.73547 4.3231,-4.18346 9.7645,-9.47835 9.404,-15.81722 -0.052,-0.90558 -0.2214,-1.83516 -0.5293,-2.78313 -2.1652,-5.3441 -6.3006,-9.49104 -9.7608,-13.99655 -34.8916,-42.55793 -57.2582,-62.19603 -100.2268,-95.58483 a 30.803518,30.803518 0 0 0 -7.8059,-25.9531 30.803518,30.803518 0 0 0 -28.6943,-9.1798 c -1.8422,-1.7693 -3.4681,-3.7603 -4.7668,-5.977 -11.8586,-20.8588 -25.3206,-40.9159 -41.1014,-59.0627 -18.5916,-21.2752 -21.5274,-21.1566 -44.1237,-38.0957 -5.814,-3.9082 -11.0332,-9.2157 -18.0741,-10.8471 -5.8267,-0.4367 -10.386,3.0006 -14.478,6.7597 z m 123.1644,131.2861 a 8.3312006,8.3312006 0 0 1 11.7742,0.4253 8.3312006,8.3312006 0 0 1 -0.4268,11.7756 8.3312006,8.3312006 0 0 1 -11.7755,-0.4268 8.3312006,8.3312006 0 0 1 0.4281,-11.7741 z"
       style="fill:#ffffff;fill-opacity:1;stroke:none;stroke-width:2.32345963;stroke-miterlimit:4;stroke-dasharray:none;stroke-opacity:1"
       mask="url(#mask4662)" />
    <path
       style="fill:#dddddd;fill-opacity:1;fill-rule:evenodd;stroke:none;stroke-width:1px;stroke-linecap:butt;stroke-linejoin:miter;stroke-opacity:1"
       d="m 1808.3128,-1098.9568 -35.8672,-46.9223 -46.791,-71.7498 c 13.5534,11.281 33.2083,27.0411 46.6939,38.409 l 23.3717,28.2305 25.5787,41.0395 c 0,0 -5.3493,2.2041 -7.5294,4.0362 -2.2563,1.8961 -5.4567,6.9569 -5.4567,6.9569 z"
       id="path10703"
       inkscape:connector-curvature="0"
       sodipodi:nodetypes="ccccccac"
       mask="url(#mask4650)" />
    <path
       sodipodi:nodetypes="ccccccac"
       inkscape:connector-curvature="0"
       id="path10705"
       d="m 1856.4617,-1065.0817 35.8672,46.9223 46.791,71.74976 c -13.5534,-11.281 -33.2083,-27.0411 -46.6939,-38.409 l -23.3717,-28.23046 -25.5787,-41.0395 c 0,0 5.3493,-2.2041 7.5294,-4.0362 2.2563,-1.8961 5.4567,-6.9569 5.4567,-6.9569 z"
       style="fill:#dddddd;fill-opacity:1;fill-rule:evenodd;stroke:none;stroke-width:1px;stroke-linecap:butt;stroke-linejoin:miter;stroke-opacity:1"
       mask="url(#mask4646)" />
  </g>
</svg>
